<?xml version="1.0" encoding="UTF-8" standalone="no"?>
<!DOCTYPE svg PUBLIC "-//W3C//DTD SVG 1.1//EN"
 "http://www.w3.org/Graphics/SVG/1.1/DTD/svg11.dtd">
<!-- Generated by graphviz version 2.40.1 (20161225.0304)
 -->
<!-- Title: %3 Pages: 1 -->
<svg width="1521pt" height="620pt"
 viewBox="0.00 0.00 1520.65 620.00" xmlns="http://www.w3.org/2000/svg" xmlns:xlink="http://www.w3.org/1999/xlink">
<g id="graph0" class="graph" transform="scale(1 1) rotate(0) translate(4 616)">
<title>%3</title>
<polygon fill="#ffffff" stroke="transparent" points="-4,4 -4,-616 1516.6538,-616 1516.6538,4 -4,4"/>
<!-- [root] data.vsphere_compute_cluster.cluster -->
<g id="node1" class="node">
<title>[root] data.vsphere_compute_cluster.cluster</title>
<polygon fill="none" stroke="#000000" points="225.8975,-324 .0342,-324 .0342,-288 225.8975,-288 225.8975,-324"/>
<text text-anchor="middle" x="112.9658" y="-301.8" font-family="Times,serif" font-size="14.00" fill="#000000">data.vsphere_compute_cluster.cluster</text>
</g>
<!-- [root] data.vsphere_datacenter.dc -->
<g id="node2" class="node">
<title>[root] data.vsphere_datacenter.dc</title>
<polygon fill="none" stroke="#000000" points="577.2804,-180 410.6513,-180 410.6513,-144 577.2804,-144 577.2804,-180"/>
<text text-anchor="middle" x="493.9658" y="-157.8" font-family="Times,serif" font-size="14.00" fill="#000000">data.vsphere_datacenter.dc</text>
</g>
<!-- [root] data.vsphere_compute_cluster.cluster&#45;&gt;[root] data.vsphere_datacenter.dc -->
<g id="edge1" class="edge">
<title>[root] data.vsphere_compute_cluster.cluster&#45;&gt;[root] data.vsphere_datacenter.dc</title>
<path fill="none" stroke="#000000" d="M111.2341,-287.9274C110.3557,-267.4052 112.4349,-234.3933 131.9658,-216 151.2804,-197.8105 299.4694,-180.3709 400.157,-170.4446"/>
<polygon fill="#000000" stroke="#000000" points="400.7432,-173.9041 410.3557,-169.4488 400.0628,-166.9373 400.7432,-173.9041"/>
</g>
<!-- [root] var.vsphere_cluster -->
<g id="node17" class="node">
<title>[root] var.vsphere_cluster</title>
<polygon fill="none" stroke="#000000" points="259.4325,-252 140.4991,-252 140.4991,-216 265.4325,-216 265.4325,-246 259.4325,-252"/>
<polyline fill="none" stroke="#000000" points="259.4325,-252 259.4325,-246 "/>
<polyline fill="none" stroke="#000000" points="265.4325,-246 259.4325,-246 "/>
<text text-anchor="middle" x="202.9658" y="-229.8" font-family="Times,serif" font-size="14.00" fill="#000000">var.vsphere_cluster</text>
</g>
<!-- [root] data.vsphere_compute_cluster.cluster&#45;&gt;[root] var.vsphere_cluster -->
<g id="edge2" class="edge">
<title>[root] data.vsphere_compute_cluster.cluster&#45;&gt;[root] var.vsphere_cluster</title>
<path fill="none" stroke="#000000" d="M135.6766,-287.8314C146.7618,-278.9632 160.2612,-268.1637 172.251,-258.5718"/>
<polygon fill="#000000" stroke="#000000" points="174.64,-261.1429 180.2623,-252.1628 170.2671,-255.6768 174.64,-261.1429"/>
</g>
<!-- [root] provider.vsphere -->
<g id="node6" class="node">
<title>[root] provider.vsphere</title>
<polygon fill="none" stroke="#000000" points="399.9658,-108 301.97,-90 399.9658,-72 497.9617,-90 399.9658,-108"/>
<text text-anchor="middle" x="399.9658" y="-85.8" font-family="Times,serif" font-size="14.00" fill="#000000">provider.vsphere</text>
</g>
<!-- [root] data.vsphere_datacenter.dc&#45;&gt;[root] provider.vsphere -->
<g id="edge3" class="edge">
<title>[root] data.vsphere_datacenter.dc&#45;&gt;[root] provider.vsphere</title>
<path fill="none" stroke="#000000" d="M470.2457,-143.8314C457.0939,-133.7577 440.6886,-121.1919 427.0365,-110.735"/>
<polygon fill="#000000" stroke="#000000" points="429.0128,-107.84 418.9457,-104.5378 424.7562,-113.3972 429.0128,-107.84"/>
</g>
<!-- [root] var.vsphere_datacenter -->
<g id="node18" class="node">
<title>[root] var.vsphere_datacenter</title>
<polygon fill="none" stroke="#000000" points="654.1254,-108 515.8062,-108 515.8062,-72 660.1254,-72 660.1254,-102 654.1254,-108"/>
<polyline fill="none" stroke="#000000" points="654.1254,-108 654.1254,-102 "/>
<polyline fill="none" stroke="#000000" points="660.1254,-102 654.1254,-102 "/>
<text text-anchor="middle" x="587.9658" y="-85.8" font-family="Times,serif" font-size="14.00" fill="#000000">var.vsphere_datacenter</text>
</g>
<!-- [root] data.vsphere_datacenter.dc&#45;&gt;[root] var.vsphere_datacenter -->
<g id="edge4" class="edge">
<title>[root] data.vsphere_datacenter.dc&#45;&gt;[root] var.vsphere_datacenter</title>
<path fill="none" stroke="#000000" d="M517.686,-143.8314C529.3752,-134.8779 543.6346,-123.9558 556.2467,-114.2955"/>
<polygon fill="#000000" stroke="#000000" points="558.4427,-117.0222 564.2532,-108.1628 554.1862,-111.4651 558.4427,-117.0222"/>
</g>
<!-- [root] data.vsphere_datastore.datastore -->
<g id="node3" class="node">
<title>[root] data.vsphere_datastore.datastore</title>
<polygon fill="none" stroke="#000000" points="587.8838,-396 390.0478,-396 390.0478,-360 587.8838,-360 587.8838,-396"/>
<text text-anchor="middle" x="488.9658" y="-373.8" font-family="Times,serif" font-size="14.00" fill="#000000">data.vsphere_datastore.datastore</text>
</g>
<!-- [root] data.vsphere_datastore.datastore&#45;&gt;[root] data.vsphere_datacenter.dc -->
<g id="edge5" class="edge">
<title>[root] data.vsphere_datastore.datastore&#45;&gt;[root] data.vsphere_datacenter.dc</title>
<path fill="none" stroke="#000000" d="M474.7299,-359.6423C467.9119,-349.6872 460.4797,-336.8222 456.9658,-324 444.1132,-277.1002 464.2276,-221.727 479.4672,-189.3724"/>
<polygon fill="#000000" stroke="#000000" points="482.75,-190.6263 483.9983,-180.1052 476.4615,-187.5515 482.75,-190.6263"/>
</g>
<!-- [root] var.vm_datastore -->
<g id="node8" class="node">
<title>[root] var.vm_datastore</title>
<polygon fill="none" stroke="#000000" points="571.9971,-324 465.9346,-324 465.9346,-288 577.9971,-288 577.9971,-318 571.9971,-324"/>
<polyline fill="none" stroke="#000000" points="571.9971,-324 571.9971,-318 "/>
<polyline fill="none" stroke="#000000" points="577.9971,-318 571.9971,-318 "/>
<text text-anchor="middle" x="521.9658" y="-301.8" font-family="Times,serif" font-size="14.00" fill="#000000">var.vm_datastore</text>
</g>
<!-- [root] data.vsphere_datastore.datastore&#45;&gt;[root] var.vm_datastore -->
<g id="edge6" class="edge">
<title>[root] data.vsphere_datastore.datastore&#45;&gt;[root] var.vm_datastore</title>
<path fill="none" stroke="#000000" d="M497.2931,-359.8314C500.9388,-351.8771 505.2967,-342.369 509.3285,-333.5723"/>
<polygon fill="#000000" stroke="#000000" points="512.5415,-334.9622 513.5264,-324.4133 506.1781,-332.0456 512.5415,-334.9622"/>
</g>
<!-- [root] data.vsphere_host.host -->
<g id="node4" class="node">
<title>[root] data.vsphere_host.host</title>
<polygon fill="none" stroke="#000000" points="777.4978,-252 634.4338,-252 634.4338,-216 777.4978,-216 777.4978,-252"/>
<text text-anchor="middle" x="705.9658" y="-229.8" font-family="Times,serif" font-size="14.00" fill="#000000">data.vsphere_host.host</text>
</g>
<!-- [root] data.vsphere_host.host&#45;&gt;[root] data.vsphere_datacenter.dc -->
<g id="edge7" class="edge">
<title>[root] data.vsphere_host.host&#45;&gt;[root] data.vsphere_datacenter.dc</title>
<path fill="none" stroke="#000000" d="M652.7429,-215.9243C623.6353,-206.0387 587.3992,-193.7321 556.8964,-183.3726"/>
<polygon fill="#000000" stroke="#000000" points="557.805,-179.9849 547.2106,-180.0831 555.5539,-186.6131 557.805,-179.9849"/>
</g>
<!-- [root] var.vsphere_host -->
<g id="node19" class="node">
<title>[root] var.vsphere_host</title>
<polygon fill="none" stroke="#000000" points="755.4532,-180 650.4784,-180 650.4784,-144 761.4532,-144 761.4532,-174 755.4532,-180"/>
<polyline fill="none" stroke="#000000" points="755.4532,-180 755.4532,-174 "/>
<polyline fill="none" stroke="#000000" points="761.4532,-174 755.4532,-174 "/>
<text text-anchor="middle" x="705.9658" y="-157.8" font-family="Times,serif" font-size="14.00" fill="#000000">var.vsphere_host</text>
</g>
<!-- [root] data.vsphere_host.host&#45;&gt;[root] var.vsphere_host -->
<g id="edge8" class="edge">
<title>[root] data.vsphere_host.host&#45;&gt;[root] var.vsphere_host</title>
<path fill="none" stroke="#000000" d="M705.9658,-215.8314C705.9658,-208.131 705.9658,-198.9743 705.9658,-190.4166"/>
<polygon fill="#000000" stroke="#000000" points="709.4659,-190.4132 705.9658,-180.4133 702.4659,-190.4133 709.4659,-190.4132"/>
</g>
<!-- [root] data.vsphere_virtual_machine.template -->
<g id="node5" class="node">
<title>[root] data.vsphere_virtual_machine.template</title>
<polygon fill="none" stroke="#000000" points="841.9873,-396 605.9443,-396 605.9443,-360 841.9873,-360 841.9873,-396"/>
<text text-anchor="middle" x="723.9658" y="-373.8" font-family="Times,serif" font-size="14.00" fill="#000000">data.vsphere_virtual_machine.template</text>
</g>
<!-- [root] data.vsphere_virtual_machine.template&#45;&gt;[root] data.vsphere_datacenter.dc -->
<g id="edge9" class="edge">
<title>[root] data.vsphere_virtual_machine.template&#45;&gt;[root] data.vsphere_datacenter.dc</title>
<path fill="none" stroke="#000000" d="M693.1121,-359.8771C677.4522,-350.0835 658.5066,-337.2927 642.9658,-324 592.6382,-280.9526 542.163,-221.9418 514.8067,-188.3121"/>
<polygon fill="#000000" stroke="#000000" points="517.3698,-185.9151 508.364,-180.3342 511.9239,-190.3131 517.3698,-185.9151"/>
</g>
<!-- [root] var.vm_template -->
<g id="node15" class="node">
<title>[root] var.vm_template</title>
<polygon fill="none" stroke="#000000" points="755.6664,-324 652.2652,-324 652.2652,-288 761.6664,-288 761.6664,-318 755.6664,-324"/>
<polyline fill="none" stroke="#000000" points="755.6664,-324 755.6664,-318 "/>
<polyline fill="none" stroke="#000000" points="761.6664,-318 755.6664,-318 "/>
<text text-anchor="middle" x="706.9658" y="-301.8" font-family="Times,serif" font-size="14.00" fill="#000000">var.vm_template</text>
</g>
<!-- [root] data.vsphere_virtual_machine.template&#45;&gt;[root] var.vm_template -->
<g id="edge10" class="edge">
<title>[root] data.vsphere_virtual_machine.template&#45;&gt;[root] var.vm_template</title>
<path fill="none" stroke="#000000" d="M719.676,-359.8314C717.8579,-352.131 715.6959,-342.9743 713.6753,-334.4166"/>
<polygon fill="#000000" stroke="#000000" points="717.0177,-333.3414 711.3134,-324.4133 710.2051,-334.95 717.0177,-333.3414"/>
</g>
<!-- [root] var.vsphere_password -->
<g id="node21" class="node">
<title>[root] var.vsphere_password</title>
<polygon fill="none" stroke="#000000" points="214.9971,-36 80.9346,-36 80.9346,0 220.9971,0 220.9971,-30 214.9971,-36"/>
<polyline fill="none" stroke="#000000" points="214.9971,-36 214.9971,-30 "/>
<polyline fill="none" stroke="#000000" points="220.9971,-30 214.9971,-30 "/>
<text text-anchor="middle" x="150.9658" y="-13.8" font-family="Times,serif" font-size="14.00" fill="#000000">var.vsphere_password</text>
</g>
<!-- [root] provider.vsphere&#45;&gt;[root] var.vsphere_password -->
<g id="edge16" class="edge">
<title>[root] provider.vsphere&#45;&gt;[root] var.vsphere_password</title>
<path fill="none" stroke="#000000" d="M361.877,-78.9864C325.0696,-68.3433 268.3788,-51.9507 223.0382,-38.8402"/>
<polygon fill="#000000" stroke="#000000" points="223.8319,-35.4264 213.2532,-36.0108 221.8874,-42.1509 223.8319,-35.4264"/>
</g>
<!-- [root] var.vsphere_unverified_ssl -->
<g id="node28" class="node">
<title>[root] var.vsphere_unverified_ssl</title>
<polygon fill="none" stroke="#000000" points="398.6663,-36 239.2654,-36 239.2654,0 404.6663,0 404.6663,-30 398.6663,-36"/>
<polyline fill="none" stroke="#000000" points="398.6663,-36 398.6663,-30 "/>
<polyline fill="none" stroke="#000000" points="404.6663,-30 398.6663,-30 "/>
<text text-anchor="middle" x="321.9658" y="-13.8" font-family="Times,serif" font-size="14.00" fill="#000000">var.vsphere_unverified_ssl</text>
</g>
<!-- [root] provider.vsphere&#45;&gt;[root] var.vsphere_unverified_ssl -->
<g id="edge17" class="edge">
<title>[root] provider.vsphere&#45;&gt;[root] var.vsphere_unverified_ssl</title>
<path fill="none" stroke="#000000" d="M383.424,-74.7307C373.4684,-65.5409 360.551,-53.6171 349.1297,-43.0743"/>
<polygon fill="#000000" stroke="#000000" points="351.2385,-40.2577 341.5164,-36.0467 346.4905,-45.4013 351.2385,-40.2577"/>
</g>
<!-- [root] var.vsphere_user -->
<g id="node29" class="node">
<title>[root] var.vsphere_user</title>
<polygon fill="none" stroke="#000000" points="527.4395,-36 422.4921,-36 422.4921,0 533.4395,0 533.4395,-30 527.4395,-36"/>
<polyline fill="none" stroke="#000000" points="527.4395,-36 527.4395,-30 "/>
<polyline fill="none" stroke="#000000" points="533.4395,-30 527.4395,-30 "/>
<text text-anchor="middle" x="477.9658" y="-13.8" font-family="Times,serif" font-size="14.00" fill="#000000">var.vsphere_user</text>
</g>
<!-- [root] provider.vsphere&#45;&gt;[root] var.vsphere_user -->
<g id="edge18" class="edge">
<title>[root] provider.vsphere&#45;&gt;[root] var.vsphere_user</title>
<path fill="none" stroke="#000000" d="M416.5076,-74.7307C426.4632,-65.5409 439.3806,-53.6171 450.802,-43.0743"/>
<polygon fill="#000000" stroke="#000000" points="453.4412,-45.4013 458.4152,-36.0467 448.6932,-40.2577 453.4412,-45.4013"/>
</g>
<!-- [root] var.vsphere_vcenter -->
<g id="node30" class="node">
<title>[root] var.vsphere_vcenter</title>
<polygon fill="none" stroke="#000000" points="673.3081,-36 550.6236,-36 550.6236,0 679.3081,0 679.3081,-30 673.3081,-36"/>
<polyline fill="none" stroke="#000000" points="673.3081,-36 673.3081,-30 "/>
<polyline fill="none" stroke="#000000" points="679.3081,-30 673.3081,-30 "/>
<text text-anchor="middle" x="614.9658" y="-13.8" font-family="Times,serif" font-size="14.00" fill="#000000">var.vsphere_vcenter</text>
</g>
<!-- [root] provider.vsphere&#45;&gt;[root] var.vsphere_vcenter -->
<g id="edge19" class="edge">
<title>[root] provider.vsphere&#45;&gt;[root] var.vsphere_vcenter</title>
<path fill="none" stroke="#000000" d="M434.9878,-78.2717C466.3365,-67.7735 513.0773,-52.1208 551.0694,-39.3979"/>
<polygon fill="#000000" stroke="#000000" points="552.6567,-42.5574 561.0277,-36.063 550.4338,-35.9197 552.6567,-42.5574"/>
</g>
<!-- [root] var.vm_cpu -->
<g id="node7" class="node">
<title>[root] var.vm_cpu</title>
<polygon fill="none" stroke="#000000" points="1129.6802,-396 1054.2515,-396 1054.2515,-360 1135.6802,-360 1135.6802,-390 1129.6802,-396"/>
<polyline fill="none" stroke="#000000" points="1129.6802,-396 1129.6802,-390 "/>
<polyline fill="none" stroke="#000000" points="1135.6802,-390 1129.6802,-390 "/>
<text text-anchor="middle" x="1094.9658" y="-373.8" font-family="Times,serif" font-size="14.00" fill="#000000">var.vm_cpu</text>
</g>
<!-- [root] var.vm_folder -->
<g id="node9" class="node">
<title>[root] var.vm_folder</title>
<polygon fill="none" stroke="#000000" points="1229.3936,-468 1140.5381,-468 1140.5381,-432 1235.3936,-432 1235.3936,-462 1229.3936,-468"/>
<polyline fill="none" stroke="#000000" points="1229.3936,-468 1229.3936,-462 "/>
<polyline fill="none" stroke="#000000" points="1235.3936,-462 1229.3936,-462 "/>
<text text-anchor="middle" x="1187.9658" y="-445.8" font-family="Times,serif" font-size="14.00" fill="#000000">var.vm_folder</text>
</g>
<!-- [root] var.vm_ips -->
<g id="node10" class="node">
<title>[root] var.vm_ips</title>
<polygon fill="none" stroke="#000000" points="1225.8039,-396 1154.1278,-396 1154.1278,-360 1231.8039,-360 1231.8039,-390 1225.8039,-396"/>
<polyline fill="none" stroke="#000000" points="1225.8039,-396 1225.8039,-390 "/>
<polyline fill="none" stroke="#000000" points="1231.8039,-390 1225.8039,-390 "/>
<text text-anchor="middle" x="1192.9658" y="-373.8" font-family="Times,serif" font-size="14.00" fill="#000000">var.vm_ips</text>
</g>
<!-- [root] var.vm_linked_clone -->
<g id="node11" class="node">
<title>[root] var.vm_linked_clone</title>
<polygon fill="none" stroke="#000000" points="1380.7765,-468 1253.1551,-468 1253.1551,-432 1386.7765,-432 1386.7765,-462 1380.7765,-468"/>
<polyline fill="none" stroke="#000000" points="1380.7765,-468 1380.7765,-462 "/>
<polyline fill="none" stroke="#000000" points="1386.7765,-462 1380.7765,-462 "/>
<text text-anchor="middle" x="1319.9658" y="-445.8" font-family="Times,serif" font-size="14.00" fill="#000000">var.vm_linked_clone</text>
</g>
<!-- [root] var.vm_name_prefix -->
<g id="node12" class="node">
<title>[root] var.vm_name_prefix</title>
<polygon fill="none" stroke="#000000" points="1375.9462,-396 1249.9855,-396 1249.9855,-360 1381.9462,-360 1381.9462,-390 1375.9462,-396"/>
<polyline fill="none" stroke="#000000" points="1375.9462,-396 1375.9462,-390 "/>
<polyline fill="none" stroke="#000000" points="1381.9462,-390 1375.9462,-390 "/>
<text text-anchor="middle" x="1315.9658" y="-373.8" font-family="Times,serif" font-size="14.00" fill="#000000">var.vm_name_prefix</text>
</g>
<!-- [root] var.vm_network -->
<g id="node13" class="node">
<title>[root] var.vm_network</title>
<polygon fill="none" stroke="#000000" points="1506.8425,-468 1405.0892,-468 1405.0892,-432 1512.8425,-432 1512.8425,-462 1506.8425,-468"/>
<polyline fill="none" stroke="#000000" points="1506.8425,-468 1506.8425,-462 "/>
<polyline fill="none" stroke="#000000" points="1512.8425,-462 1506.8425,-462 "/>
<text text-anchor="middle" x="1458.9658" y="-445.8" font-family="Times,serif" font-size="14.00" fill="#000000">var.vm_network</text>
</g>
<!-- [root] var.vm_ram -->
<g id="node14" class="node">
<title>[root] var.vm_ram</title>
<polygon fill="none" stroke="#000000" points="1476.7319,-396 1399.1998,-396 1399.1998,-360 1482.7319,-360 1482.7319,-390 1476.7319,-396"/>
<polyline fill="none" stroke="#000000" points="1476.7319,-396 1476.7319,-390 "/>
<polyline fill="none" stroke="#000000" points="1482.7319,-390 1476.7319,-390 "/>
<text text-anchor="middle" x="1440.9658" y="-373.8" font-family="Times,serif" font-size="14.00" fill="#000000">var.vm_ram</text>
</g>
<!-- [root] var.vsphere_active_nics -->
<g id="node16" class="node">
<title>[root] var.vsphere_active_nics</title>
<polygon fill="none" stroke="#000000" points="940.087,-252 795.8447,-252 795.8447,-216 946.087,-216 946.087,-246 940.087,-252"/>
<polyline fill="none" stroke="#000000" points="940.087,-252 940.087,-246 "/>
<polyline fill="none" stroke="#000000" points="946.087,-246 940.087,-246 "/>
<text text-anchor="middle" x="870.9658" y="-229.8" font-family="Times,serif" font-size="14.00" fill="#000000">var.vsphere_active_nics</text>
</g>
<!-- [root] var.vsphere_nics -->
<g id="node20" class="node">
<title>[root] var.vsphere_nics</title>
<polygon fill="none" stroke="#000000" points="1067.6664,-252 964.2652,-252 964.2652,-216 1073.6664,-216 1073.6664,-246 1067.6664,-252"/>
<polyline fill="none" stroke="#000000" points="1067.6664,-252 1067.6664,-246 "/>
<polyline fill="none" stroke="#000000" points="1073.6664,-246 1067.6664,-246 "/>
<text text-anchor="middle" x="1018.9658" y="-229.8" font-family="Times,serif" font-size="14.00" fill="#000000">var.vsphere_nics</text>
</g>
<!-- [root] var.vsphere_pg -->
<g id="node22" class="node">
<title>[root] var.vsphere_pg</title>
<polygon fill="none" stroke="#000000" points="1109.6144,-324 1014.3173,-324 1014.3173,-288 1115.6144,-288 1115.6144,-318 1109.6144,-324"/>
<polyline fill="none" stroke="#000000" points="1109.6144,-324 1109.6144,-318 "/>
<polyline fill="none" stroke="#000000" points="1115.6144,-318 1109.6144,-318 "/>
<text text-anchor="middle" x="1064.9658" y="-301.8" font-family="Times,serif" font-size="14.00" fill="#000000">var.vsphere_pg</text>
</g>
<!-- [root] var.vsphere_pg_promiscuous -->
<g id="node23" class="node">
<title>[root] var.vsphere_pg_promiscuous</title>
<polygon fill="none" stroke="#000000" points="1306.6663,-324 1133.2654,-324 1133.2654,-288 1312.6663,-288 1312.6663,-318 1306.6663,-324"/>
<polyline fill="none" stroke="#000000" points="1306.6663,-324 1306.6663,-318 "/>
<polyline fill="none" stroke="#000000" points="1312.6663,-318 1306.6663,-318 "/>
<text text-anchor="middle" x="1222.9658" y="-301.8" font-family="Times,serif" font-size="14.00" fill="#000000">var.vsphere_pg_promiscuous</text>
</g>
<!-- [root] var.vsphere_pg_vlan -->
<g id="node24" class="node">
<title>[root] var.vsphere_pg_vlan</title>
<polygon fill="none" stroke="#000000" points="1457.218,-324 1330.7136,-324 1330.7136,-288 1463.218,-288 1463.218,-318 1457.218,-324"/>
<polyline fill="none" stroke="#000000" points="1457.218,-324 1457.218,-318 "/>
<polyline fill="none" stroke="#000000" points="1463.218,-318 1457.218,-318 "/>
<text text-anchor="middle" x="1396.9658" y="-301.8" font-family="Times,serif" font-size="14.00" fill="#000000">var.vsphere_pg_vlan</text>
</g>
<!-- [root] var.vsphere_resource_pool -->
<g id="node25" class="node">
<title>[root] var.vsphere_resource_pool</title>
<polygon fill="none" stroke="#000000" points="404.4186,-324 243.5131,-324 243.5131,-288 410.4186,-288 410.4186,-318 404.4186,-324"/>
<polyline fill="none" stroke="#000000" points="404.4186,-324 404.4186,-318 "/>
<polyline fill="none" stroke="#000000" points="410.4186,-318 404.4186,-318 "/>
<text text-anchor="middle" x="326.9658" y="-301.8" font-family="Times,serif" font-size="14.00" fill="#000000">var.vsphere_resource_pool</text>
</g>
<!-- [root] var.vsphere_standby_nics -->
<g id="node26" class="node">
<title>[root] var.vsphere_standby_nics</title>
<polygon fill="none" stroke="#000000" points="1246.218,-252 1091.7137,-252 1091.7137,-216 1252.218,-216 1252.218,-246 1246.218,-252"/>
<polyline fill="none" stroke="#000000" points="1246.218,-252 1246.218,-246 "/>
<polyline fill="none" stroke="#000000" points="1252.218,-246 1246.218,-246 "/>
<text text-anchor="middle" x="1171.9658" y="-229.8" font-family="Times,serif" font-size="14.00" fill="#000000">var.vsphere_standby_nics</text>
</g>
<!-- [root] var.vsphere_switch -->
<g id="node27" class="node">
<title>[root] var.vsphere_switch</title>
<polygon fill="none" stroke="#000000" points="1387.6664,-252 1270.2653,-252 1270.2653,-216 1393.6664,-216 1393.6664,-246 1387.6664,-252"/>
<polyline fill="none" stroke="#000000" points="1387.6664,-252 1387.6664,-246 "/>
<polyline fill="none" stroke="#000000" points="1393.6664,-246 1387.6664,-246 "/>
<text text-anchor="middle" x="1331.9658" y="-229.8" font-family="Times,serif" font-size="14.00" fill="#000000">var.vsphere_switch</text>
</g>
<!-- [root] vsphere_host_port_group.pg -->
<g id="node31" class="node">
<title>[root] vsphere_host_port_group.pg</title>
<polygon fill="none" stroke="#000000" points="1036.0561,-396 859.8755,-396 859.8755,-360 1036.0561,-360 1036.0561,-396"/>
<text text-anchor="middle" x="947.9658" y="-373.8" font-family="Times,serif" font-size="14.00" fill="#000000">vsphere_host_port_group.pg</text>
</g>
<!-- [root] vsphere_host_port_group.pg&#45;&gt;[root] var.vsphere_pg -->
<g id="edge22" class="edge">
<title>[root] vsphere_host_port_group.pg&#45;&gt;[root] var.vsphere_pg</title>
<path fill="none" stroke="#000000" d="M977.4899,-359.8314C992.4549,-350.6221 1010.8044,-339.3301 1026.8261,-329.4706"/>
<polygon fill="#000000" stroke="#000000" points="1028.769,-332.3847 1035.4512,-324.1628 1025.1003,-326.423 1028.769,-332.3847"/>
</g>
<!-- [root] vsphere_host_port_group.pg&#45;&gt;[root] var.vsphere_pg_promiscuous -->
<g id="edge23" class="edge">
<title>[root] vsphere_host_port_group.pg&#45;&gt;[root] var.vsphere_pg_promiscuous</title>
<path fill="none" stroke="#000000" d="M1017.005,-359.9243C1055.6615,-349.8033 1104.0104,-337.1447 1144.1476,-326.6361"/>
<polygon fill="#000000" stroke="#000000" points="1145.1108,-330.0019 1153.8983,-324.0831 1143.3378,-323.2302 1145.1108,-330.0019"/>
</g>
<!-- [root] vsphere_host_port_group.pg&#45;&gt;[root] var.vsphere_pg_vlan -->
<g id="edge24" class="edge">
<title>[root] vsphere_host_port_group.pg&#45;&gt;[root] var.vsphere_pg_vlan</title>
<path fill="none" stroke="#000000" d="M1036.2187,-361.4132C1039.1677,-360.926 1042.0896,-360.4534 1044.9658,-360 1164.3643,-341.1772 1198.1135,-346.227 1320.6405,-324.1399"/>
<polygon fill="#000000" stroke="#000000" points="1321.5858,-327.5252 1330.7939,-322.2847 1320.3276,-320.6392 1321.5858,-327.5252"/>
</g>
<!-- [root] vsphere_host_virtual_switch.switch -->
<g id="node32" class="node">
<title>[root] vsphere_host_virtual_switch.switch</title>
<polygon fill="none" stroke="#000000" points="996.4902,-324 779.4414,-324 779.4414,-288 996.4902,-288 996.4902,-324"/>
<text text-anchor="middle" x="887.9658" y="-301.8" font-family="Times,serif" font-size="14.00" fill="#000000">vsphere_host_virtual_switch.switch</text>
</g>
<!-- [root] vsphere_host_port_group.pg&#45;&gt;[root] vsphere_host_virtual_switch.switch -->
<g id="edge25" class="edge">
<title>[root] vsphere_host_port_group.pg&#45;&gt;[root] vsphere_host_virtual_switch.switch</title>
<path fill="none" stroke="#000000" d="M932.8253,-359.8314C925.8442,-351.454 917.4268,-341.3531 909.7783,-332.1749"/>
<polygon fill="#000000" stroke="#000000" points="912.4009,-329.8548 903.3102,-324.4133 907.0233,-334.3362 912.4009,-329.8548"/>
</g>
<!-- [root] vsphere_host_virtual_switch.switch&#45;&gt;[root] data.vsphere_host.host -->
<g id="edge26" class="edge">
<title>[root] vsphere_host_virtual_switch.switch&#45;&gt;[root] data.vsphere_host.host</title>
<path fill="none" stroke="#000000" d="M842.0395,-287.8314C817.3736,-278.0734 786.7967,-265.977 760.8798,-255.7242"/>
<polygon fill="#000000" stroke="#000000" points="762.1482,-252.4621 751.5619,-252.038 759.5731,-258.9713 762.1482,-252.4621"/>
</g>
<!-- [root] vsphere_host_virtual_switch.switch&#45;&gt;[root] var.vsphere_active_nics -->
<g id="edge27" class="edge">
<title>[root] vsphere_host_virtual_switch.switch&#45;&gt;[root] var.vsphere_active_nics</title>
<path fill="none" stroke="#000000" d="M883.676,-287.8314C881.8579,-280.131 879.6959,-270.9743 877.6753,-262.4166"/>
<polygon fill="#000000" stroke="#000000" points="881.0177,-261.3414 875.3134,-252.4133 874.2051,-262.95 881.0177,-261.3414"/>
</g>
<!-- [root] vsphere_host_virtual_switch.switch&#45;&gt;[root] var.vsphere_nics -->
<g id="edge28" class="edge">
<title>[root] vsphere_host_virtual_switch.switch&#45;&gt;[root] var.vsphere_nics</title>
<path fill="none" stroke="#000000" d="M921.0227,-287.8314C937.9335,-278.5368 958.7043,-267.1208 976.76,-257.1971"/>
<polygon fill="#000000" stroke="#000000" points="978.8418,-260.0468 985.9196,-252.1628 975.4701,-253.9122 978.8418,-260.0468"/>
</g>
<!-- [root] vsphere_host_virtual_switch.switch&#45;&gt;[root] var.vsphere_standby_nics -->
<g id="edge29" class="edge">
<title>[root] vsphere_host_virtual_switch.switch&#45;&gt;[root] var.vsphere_standby_nics</title>
<path fill="none" stroke="#000000" d="M959.2644,-287.9243C999.2705,-277.7819 1049.3285,-265.0912 1090.8308,-254.5694"/>
<polygon fill="#000000" stroke="#000000" points="1091.8047,-257.9334 1100.6379,-252.0831 1090.0844,-251.148 1091.8047,-257.9334"/>
</g>
<!-- [root] vsphere_host_virtual_switch.switch&#45;&gt;[root] var.vsphere_switch -->
<g id="edge30" class="edge">
<title>[root] vsphere_host_virtual_switch.switch&#45;&gt;[root] var.vsphere_switch</title>
<path fill="none" stroke="#000000" d="M996.635,-289.2328C999.4402,-288.8157 1002.221,-288.4041 1004.9658,-288 1115.4185,-271.7381 1146.4807,-274.0027 1259.9628,-252.0845"/>
<polygon fill="#000000" stroke="#000000" points="1260.9554,-255.4569 1270.0994,-250.1054 1259.614,-248.5866 1260.9554,-255.4569"/>
</g>
<!-- [root] vsphere_resource_pool.resource_pool -->
<g id="node33" class="node">
<title>[root] vsphere_resource_pool.resource_pool</title>
<polygon fill="none" stroke="#000000" points="372.1116,-396 143.82,-396 143.82,-360 372.1116,-360 372.1116,-396"/>
<text text-anchor="middle" x="257.9658" y="-373.8" font-family="Times,serif" font-size="14.00" fill="#000000">vsphere_resource_pool.resource_pool</text>
</g>
<!-- [root] vsphere_resource_pool.resource_pool&#45;&gt;[root] data.vsphere_compute_cluster.cluster -->
<g id="edge31" class="edge">
<title>[root] vsphere_resource_pool.resource_pool&#45;&gt;[root] data.vsphere_compute_cluster.cluster</title>
<path fill="none" stroke="#000000" d="M221.3762,-359.8314C202.2419,-350.3302 178.6429,-338.6121 158.3536,-328.5374"/>
<polygon fill="#000000" stroke="#000000" points="159.8055,-325.3506 149.2923,-324.038 156.6923,-331.6203 159.8055,-325.3506"/>
</g>
<!-- [root] vsphere_resource_pool.resource_pool&#45;&gt;[root] var.vsphere_resource_pool -->
<g id="edge32" class="edge">
<title>[root] vsphere_resource_pool.resource_pool&#45;&gt;[root] var.vsphere_resource_pool</title>
<path fill="none" stroke="#000000" d="M275.3774,-359.8314C283.4868,-351.3694 293.2815,-341.1489 302.1478,-331.8971"/>
<polygon fill="#000000" stroke="#000000" points="304.9277,-334.0549 309.3198,-324.4133 299.8737,-329.2115 304.9277,-334.0549"/>
</g>
<!-- [root] vsphere_virtual_machine.vm -->
<g id="node34" class="node">
<title>[root] vsphere_virtual_machine.vm</title>
<polygon fill="none" stroke="#000000" points="1110.3594,-468 931.5722,-468 931.5722,-432 1110.3594,-432 1110.3594,-468"/>
<text text-anchor="middle" x="1020.9658" y="-445.8" font-family="Times,serif" font-size="14.00" fill="#000000">vsphere_virtual_machine.vm</text>
</g>
<!-- [root] vsphere_virtual_machine.vm&#45;&gt;[root] data.vsphere_datastore.datastore -->
<g id="edge33" class="edge">
<title>[root] vsphere_virtual_machine.vm&#45;&gt;[root] data.vsphere_datastore.datastore</title>
<path fill="none" stroke="#000000" d="M931.4941,-439.6185C847.9373,-429.6905 719.4883,-413.8351 598.3093,-396.1698"/>
<polygon fill="#000000" stroke="#000000" points="598.5095,-392.6619 588.1078,-394.6758 597.4951,-399.588 598.5095,-392.6619"/>
</g>
<!-- [root] vsphere_virtual_machine.vm&#45;&gt;[root] data.vsphere_virtual_machine.template -->
<g id="edge34" class="edge">
<title>[root] vsphere_virtual_machine.vm&#45;&gt;[root] data.vsphere_virtual_machine.template</title>
<path fill="none" stroke="#000000" d="M946.4035,-431.9243C904.3982,-421.7412 851.7963,-408.9892 808.2924,-398.4428"/>
<polygon fill="#000000" stroke="#000000" points="808.8443,-394.9753 798.3011,-396.0207 807.195,-401.7782 808.8443,-394.9753"/>
</g>
<!-- [root] vsphere_virtual_machine.vm&#45;&gt;[root] var.vm_cpu -->
<g id="edge35" class="edge">
<title>[root] vsphere_virtual_machine.vm&#45;&gt;[root] var.vm_cpu</title>
<path fill="none" stroke="#000000" d="M1039.6391,-431.8314C1048.4907,-423.219 1059.2144,-412.7851 1068.8553,-403.4048"/>
<polygon fill="#000000" stroke="#000000" points="1071.5719,-405.645 1076.2985,-396.1628 1066.6904,-400.6279 1071.5719,-405.645"/>
</g>
<!-- [root] vsphere_virtual_machine.vm&#45;&gt;[root] var.vm_ips -->
<g id="edge36" class="edge">
<title>[root] vsphere_virtual_machine.vm&#45;&gt;[root] var.vm_ips</title>
<path fill="none" stroke="#000000" d="M1064.3687,-431.8314C1088.8126,-421.599 1119.3989,-408.7955 1144.6087,-398.2425"/>
<polygon fill="#000000" stroke="#000000" points="1146.1105,-401.4082 1153.9834,-394.3182 1143.4075,-394.9511 1146.1105,-401.4082"/>
</g>
<!-- [root] vsphere_virtual_machine.vm&#45;&gt;[root] var.vm_name_prefix -->
<g id="edge37" class="edge">
<title>[root] vsphere_virtual_machine.vm&#45;&gt;[root] var.vm_name_prefix</title>
<path fill="none" stroke="#000000" d="M1095.026,-431.9243C1139.2957,-421.1195 1195.4151,-407.4226 1240.016,-396.5369"/>
<polygon fill="#000000" stroke="#000000" points="1241.0429,-399.8891 1249.9278,-394.1178 1239.3831,-393.0887 1241.0429,-399.8891"/>
</g>
<!-- [root] vsphere_virtual_machine.vm&#45;&gt;[root] var.vm_ram -->
<g id="edge38" class="edge">
<title>[root] vsphere_virtual_machine.vm&#45;&gt;[root] var.vm_ram</title>
<path fill="none" stroke="#000000" d="M1110.6002,-435.286C1117.8258,-434.1544 1125.016,-433.0464 1131.9658,-432 1243.7459,-415.1705 1276.3588,-423.3524 1389.4184,-396.1463"/>
<polygon fill="#000000" stroke="#000000" points="1390.2657,-399.5423 1399.1478,-393.7666 1388.6025,-392.7428 1390.2657,-399.5423"/>
</g>
<!-- [root] vsphere_virtual_machine.vm&#45;&gt;[root] vsphere_host_port_group.pg -->
<g id="edge39" class="edge">
<title>[root] vsphere_virtual_machine.vm&#45;&gt;[root] vsphere_host_port_group.pg</title>
<path fill="none" stroke="#000000" d="M1002.5448,-431.8314C993.8129,-423.219 983.2341,-412.7851 973.7235,-403.4048"/>
<polygon fill="#000000" stroke="#000000" points="975.9584,-400.6931 966.3809,-396.1628 971.0428,-405.6769 975.9584,-400.6931"/>
</g>
<!-- [root] vsphere_virtual_machine.vm&#45;&gt;[root] vsphere_resource_pool.resource_pool -->
<g id="edge40" class="edge">
<title>[root] vsphere_virtual_machine.vm&#45;&gt;[root] vsphere_resource_pool.resource_pool</title>
<path fill="none" stroke="#000000" d="M931.492,-444.1843C809.6543,-435.8766 584.5256,-419.1479 382.4007,-396.1284"/>
<polygon fill="#000000" stroke="#000000" points="382.5179,-392.6189 372.1843,-394.9572 381.7206,-399.5734 382.5179,-392.6189"/>
</g>
<!-- [root] meta.count&#45;boundary (EachMode fixup) -->
<g id="node35" class="node">
<title>[root] meta.count&#45;boundary (EachMode fixup)</title>
<ellipse fill="none" stroke="#000000" cx="1319.9658" cy="-522" rx="174.7874" ry="18"/>
<text text-anchor="middle" x="1319.9658" y="-517.8" font-family="Times,serif" font-size="14.00" fill="#000000">[root] meta.count&#45;boundary (EachMode fixup)</text>
</g>
<!-- [root] meta.count&#45;boundary (EachMode fixup)&#45;&gt;[root] var.vm_folder -->
<g id="edge11" class="edge">
<title>[root] meta.count&#45;boundary (EachMode fixup)&#45;&gt;[root] var.vm_folder</title>
<path fill="none" stroke="#000000" d="M1287.3366,-504.2022C1270.0157,-494.7545 1248.5335,-483.0369 1229.9789,-472.9162"/>
<polygon fill="#000000" stroke="#000000" points="1231.5915,-469.8091 1221.1365,-468.0931 1228.2395,-475.9543 1231.5915,-469.8091"/>
</g>
<!-- [root] meta.count&#45;boundary (EachMode fixup)&#45;&gt;[root] var.vm_linked_clone -->
<g id="edge12" class="edge">
<title>[root] meta.count&#45;boundary (EachMode fixup)&#45;&gt;[root] var.vm_linked_clone</title>
<path fill="none" stroke="#000000" d="M1319.9658,-503.8314C1319.9658,-496.131 1319.9658,-486.9743 1319.9658,-478.4166"/>
<polygon fill="#000000" stroke="#000000" points="1323.4659,-478.4132 1319.9658,-468.4133 1316.4659,-478.4133 1323.4659,-478.4132"/>
</g>
<!-- [root] meta.count&#45;boundary (EachMode fixup)&#45;&gt;[root] var.vm_network -->
<g id="edge13" class="edge">
<title>[root] meta.count&#45;boundary (EachMode fixup)&#45;&gt;[root] var.vm_network</title>
<path fill="none" stroke="#000000" d="M1354.3254,-504.2022C1372.6477,-494.7115 1395.3919,-482.9304 1414.991,-472.7783"/>
<polygon fill="#000000" stroke="#000000" points="1416.7664,-475.8004 1424.036,-468.0931 1413.5467,-469.5848 1416.7664,-475.8004"/>
</g>
<!-- [root] meta.count&#45;boundary (EachMode fixup)&#45;&gt;[root] vsphere_virtual_machine.vm -->
<g id="edge14" class="edge">
<title>[root] meta.count&#45;boundary (EachMode fixup)&#45;&gt;[root] vsphere_virtual_machine.vm</title>
<path fill="none" stroke="#000000" d="M1250.9938,-505.3913C1207.7721,-494.9835 1151.7509,-481.4934 1105.8155,-470.432"/>
<polygon fill="#000000" stroke="#000000" points="1106.4174,-466.977 1095.8758,-468.0385 1104.7785,-473.7825 1106.4174,-466.977"/>
</g>
<!-- [root] provider.vsphere (close) -->
<g id="node36" class="node">
<title>[root] provider.vsphere (close)</title>
<ellipse fill="none" stroke="#000000" cx="1008.9658" cy="-522" rx="117.825" ry="18"/>
<text text-anchor="middle" x="1008.9658" y="-517.8" font-family="Times,serif" font-size="14.00" fill="#000000">[root] provider.vsphere (close)</text>
</g>
<!-- [root] provider.vsphere (close)&#45;&gt;[root] vsphere_virtual_machine.vm -->
<g id="edge15" class="edge">
<title>[root] provider.vsphere (close)&#45;&gt;[root] vsphere_virtual_machine.vm</title>
<path fill="none" stroke="#000000" d="M1011.9939,-503.8314C1013.2773,-496.131 1014.8034,-486.9743 1016.2297,-478.4166"/>
<polygon fill="#000000" stroke="#000000" points="1019.7052,-478.8526 1017.8969,-468.4133 1012.8005,-477.7018 1019.7052,-478.8526"/>
</g>
<!-- [root] root -->
<g id="node37" class="node">
<title>[root] root</title>
<ellipse fill="none" stroke="#000000" cx="1163.9658" cy="-594" rx="46.8976" ry="18"/>
<text text-anchor="middle" x="1163.9658" y="-589.8" font-family="Times,serif" font-size="14.00" fill="#000000">[root] root</text>
</g>
<!-- [root] root&#45;&gt;[root] meta.count&#45;boundary (EachMode fixup) -->
<g id="edge20" class="edge">
<title>[root] root&#45;&gt;[root] meta.count&#45;boundary (EachMode fixup)</title>
<path fill="none" stroke="#000000" d="M1194.0442,-580.1177C1216.2812,-569.8544 1247.0024,-555.6754 1272.5332,-543.892"/>
<polygon fill="#000000" stroke="#000000" points="1274.0662,-547.0393 1281.6791,-539.6708 1271.1328,-540.6836 1274.0662,-547.0393"/>
</g>
<!-- [root] root&#45;&gt;[root] provider.vsphere (close) -->
<g id="edge21" class="edge">
<title>[root] root&#45;&gt;[root] provider.vsphere (close)</title>
<path fill="none" stroke="#000000" d="M1134.0803,-580.1177C1111.6724,-569.7089 1080.5939,-555.2724 1055.0181,-543.392"/>
<polygon fill="#000000" stroke="#000000" points="1056.4145,-540.1815 1045.8707,-539.1429 1053.4655,-546.53 1056.4145,-540.1815"/>
</g>
</g>
</svg>
